<svg width="512" height="512" viewBox="0 0 512 512" fill="none" xmlns="http://www.w3.org/2000/svg">
<path fill-rule="evenodd" clip-rule="evenodd" d="M244.015 31V327.321L162.055 200.79L185.872 164.02V148.88L162.055 185.649L151.547 170.509L244.015 31ZM117.254 170.608H77.3242L117.254 225.789H152.98L117.254 170.608ZM181.06 338.28V442.097L138.987 377.211L150.907 358.827V338.28L131.975 367.479L124.261 355.583L89.2007 409.654H74.4752L31 342.606L106.03 226.892L181.06 338.28ZM256 377.162V481L188.684 377.162V296.039L150.117 236.549H166.245L256 377.162ZM256.001 481V377.162L345.755 236.549H361.883L323.316 296.039V377.162L256.001 481ZM330.94 338.28V442.097L373.013 377.211L361.093 358.827V338.28L380.025 367.479L387.739 355.583L422.799 409.654H437.525L481 342.606L405.97 226.892L330.94 338.28ZM394.746 170.608H434.676L394.746 225.789H359.02L394.746 170.608ZM267.985 31V327.321L349.945 200.79L326.128 164.02V148.88L349.945 185.649L360.453 170.509L267.985 31Z" fill="url(#paint0_linear_6506_743)"/>
<path d="M248.984 50.3828C248.984 49.9453 249.133 49.5781 249.43 49.2812C249.742 48.9688 250.117 48.8125 250.555 48.8125H255.055V41.2656H250.555C250.117 41.2656 249.75 41.1094 249.453 40.7969C249.141 40.5 248.984 40.1328 248.984 39.6953C248.984 39.2578 249.133 38.8906 249.43 38.5938C249.742 38.2812 250.117 38.125 250.555 38.125H262.695C263.133 38.125 263.508 38.2734 263.82 38.5703C264.117 38.8828 264.266 39.2578 264.266 39.6953C264.266 40.1328 264.109 40.5078 263.797 40.8203C263.5 41.1172 263.133 41.2656 262.695 41.2656H258.219V48.8125H262.695C263.133 48.8125 263.508 48.9609 263.82 49.2578C264.117 49.5703 264.266 49.9453 264.266 50.3828C264.266 50.8203 264.109 51.1953 263.797 51.5078C263.5 51.8047 263.133 51.9531 262.695 51.9531H250.555C250.117 51.9531 249.75 51.7969 249.453 51.4844C249.141 51.1875 248.984 50.8203 248.984 50.3828ZM256.953 61.4922C257.766 61.4922 258.562 61.5859 259.344 61.7734C260.141 61.9609 260.898 62.2422 261.617 62.6172C262.336 62.9766 262.969 63.4609 263.516 64.0703C264.078 64.6797 264.383 65.4062 264.43 66.25V67.2344V74.7109C264.336 75.6484 263.82 76.1562 262.883 76.2344C262.445 76.2344 262.062 76.0938 261.734 75.8125C261.422 75.5156 261.266 75.1484 261.266 74.7109V66.9766C261.234 66.4922 261.047 66.0938 260.703 65.7812C260.375 65.4531 260 65.1953 259.578 65.0078C259.172 64.8203 258.742 64.6797 258.289 64.5859C257.852 64.4922 257.406 64.4453 256.953 64.4453C256.5 64.4453 256.047 64.4922 255.594 64.5859C255.156 64.6797 254.727 64.8203 254.305 65.0078C253.898 65.1953 253.523 65.4531 253.18 65.7812C252.852 66.0938 252.672 66.4922 252.641 66.9766V74.7109C252.562 75.6484 252.055 76.1562 251.117 76.2344C250.68 76.2344 250.297 76.0938 249.969 75.8125C249.656 75.5156 249.5 75.1484 249.5 74.7109V67.2344V66.25C249.547 65.4062 249.844 64.6797 250.391 64.0703C250.938 63.4609 251.57 62.9766 252.289 62.6172C253.008 62.2422 253.758 61.9609 254.539 61.7734C255.336 61.5859 256.141 61.4922 256.953 61.4922ZM256.953 100.492C256.141 100.492 255.336 100.398 254.539 100.211C253.758 100.023 253.008 99.75 252.289 99.3906C251.57 99.0156 250.938 98.5234 250.391 97.9141C249.844 97.3047 249.547 96.5781 249.5 95.7344V94.75V87.2734C249.5 86.8359 249.656 86.4766 249.969 86.1953C250.297 85.8984 250.68 85.75 251.117 85.75C252.055 85.8281 252.562 86.3359 252.641 87.2734V95.0078C252.672 95.4922 252.852 95.8984 253.18 96.2266C253.523 96.5391 253.898 96.7891 254.305 96.9766C254.727 97.1641 255.156 97.3047 255.594 97.3984C256.047 97.4922 256.5 97.5391 256.953 97.5391C257.406 97.5391 257.852 97.4922 258.289 97.3984C258.742 97.3047 259.172 97.1641 259.578 96.9766C260 96.7891 260.375 96.5391 260.703 96.2266C261.047 95.8984 261.234 95.4922 261.266 95.0078V87.2734C261.266 86.8359 261.422 86.4766 261.734 86.1953C262.062 85.8984 262.445 85.75 262.883 85.75C263.82 85.8281 264.336 86.3359 264.43 87.2734V94.75V95.7344C264.383 96.5781 264.078 97.3047 263.516 97.9141C262.969 98.5234 262.336 99.0156 261.617 99.3906C260.898 99.75 260.141 100.023 259.344 100.211C258.562 100.398 257.766 100.492 256.953 100.492ZM254.445 109.492C254.992 109.492 255.523 109.586 256.039 109.773C256.57 109.961 257.078 110.234 257.562 110.594C257.641 110.672 257.727 110.75 257.82 110.828C257.898 110.75 257.984 110.672 258.078 110.594C258.562 110.234 259.062 109.961 259.578 109.773C260.109 109.586 260.641 109.492 261.172 109.492C261.719 109.492 262.25 109.586 262.766 109.773C263.297 109.961 263.797 110.242 264.266 110.617C264.75 110.977 265.172 111.461 265.531 112.07C265.906 112.68 266.094 113.406 266.094 114.25V122.711C266 123.648 265.484 124.156 264.547 124.234C264.109 124.234 263.727 124.094 263.398 123.812C263.086 123.516 262.93 123.148 262.93 122.711V114.438C262.93 114.062 262.859 113.75 262.719 113.5C262.578 113.234 262.422 113.031 262.25 112.891C262.078 112.734 261.898 112.625 261.711 112.562C261.523 112.484 261.336 112.445 261.148 112.445C260.961 112.445 260.773 112.484 260.586 112.562C260.414 112.625 260.242 112.734 260.07 112.891C259.898 113.031 259.742 113.234 259.602 113.5C259.461 113.75 259.383 114.062 259.367 114.438V122.711C259.273 123.648 258.758 124.156 257.82 124.234C257.383 124.234 257 124.094 256.672 123.812C256.359 123.516 256.203 123.148 256.203 122.711V114.438C256.203 114.062 256.133 113.75 255.992 113.5C255.852 113.234 255.695 113.031 255.523 112.891C255.352 112.734 255.172 112.625 254.984 112.562C254.797 112.484 254.609 112.445 254.422 112.445C254.234 112.445 254.047 112.484 253.859 112.562C253.688 112.625 253.516 112.734 253.344 112.891C253.172 113.031 253.016 113.234 252.875 113.5C252.734 113.75 252.656 114.062 252.641 114.438V122.711C252.562 123.648 252.055 124.156 251.117 124.234C250.68 124.234 250.297 124.094 249.969 123.812C249.656 123.516 249.5 123.148 249.5 122.711V114.25C249.531 113.406 249.727 112.68 250.086 112.07C250.445 111.461 250.867 110.977 251.352 110.617C251.836 110.242 252.336 109.961 252.852 109.773C253.383 109.586 253.914 109.492 254.445 109.492ZM254.75 144.32C254.75 143.883 254.898 143.516 255.195 143.219C255.508 142.906 255.883 142.75 256.32 142.75H259.906L259.297 141.016C259.047 140.375 258.797 139.773 258.547 139.211C258.312 138.633 258.039 138.109 257.727 137.641C257.445 137.172 257.125 136.922 256.766 136.891C256.391 136.922 256.055 137.172 255.758 137.641C255.461 138.109 255.188 138.633 254.938 139.211C254.703 139.773 254.461 140.375 254.211 141.016L251.984 147.109C251.828 147.438 251.625 147.711 251.375 147.93C251.141 148.133 250.781 148.234 250.297 148.234C249.844 148.234 249.469 148.078 249.172 147.766C248.891 147.453 248.766 147.078 248.797 146.641C248.812 146.438 248.859 146.25 248.938 146.078L251.516 139.422C252.234 137.672 252.953 136.258 253.672 135.18C254.375 134.117 255.406 133.578 256.766 133.562C258.109 133.578 259.133 134.117 259.836 135.18C260.555 136.227 261.273 137.641 261.992 139.422L264.57 146.078C264.648 146.25 264.695 146.438 264.711 146.641C264.742 147.078 264.609 147.453 264.312 147.766C264.031 148.078 263.664 148.234 263.211 148.234C262.695 148.234 262.312 148.133 262.062 147.93C261.828 147.711 261.633 147.438 261.477 147.109L261.031 145.891H256.32C255.883 145.891 255.516 145.734 255.219 145.422C254.906 145.125 254.75 144.758 254.75 144.32ZM251.094 157.75C251.516 157.766 251.875 157.922 252.172 158.219C252.469 158.5 252.625 158.852 252.641 159.273V170.758C252.547 171.695 252.031 172.203 251.094 172.281C250.656 172.281 250.273 172.141 249.945 171.859C249.633 171.562 249.477 171.195 249.477 170.758V159.273C249.492 158.836 249.656 158.477 249.969 158.195C250.281 157.898 250.656 157.75 251.094 157.75ZM255.102 161.875C256.148 161.172 257.562 160.461 259.344 159.742L263.188 158.102C263.359 158.023 263.547 157.977 263.75 157.961C264.188 157.93 264.562 158.062 264.875 158.359C265.188 158.641 265.344 159.008 265.344 159.461C265.344 159.977 265.234 160.359 265.016 160.609C264.812 160.844 264.547 161.039 264.219 161.195L260.938 162.438C260.297 162.688 259.688 162.938 259.109 163.188C258.547 163.422 258.031 163.695 257.562 164.008C257.094 164.289 256.844 164.609 256.812 164.969C256.844 165.312 257.094 165.633 257.562 165.93C258.031 166.242 258.547 166.523 259.109 166.773C259.688 167.008 260.297 167.25 260.938 167.5L264.594 168.836C264.922 168.992 265.188 169.195 265.391 169.445C265.609 169.68 265.719 170.055 265.719 170.57C265.719 171.023 265.562 171.398 265.25 171.695C264.938 171.977 264.562 172.102 264.125 172.07C263.922 172.055 263.734 172.008 263.562 171.93L259.344 170.195C257.562 169.477 256.141 168.766 255.078 168.062C254.031 167.344 253.5 166.312 253.484 164.969C253.5 163.625 254.039 162.594 255.102 161.875ZM248.984 194.383C248.984 193.945 249.133 193.578 249.43 193.281C249.742 192.969 250.117 192.812 250.555 192.812H255.055V185.266H250.555C250.117 185.266 249.75 185.109 249.453 184.797C249.141 184.5 248.984 184.133 248.984 183.695C248.984 183.258 249.133 182.891 249.43 182.594C249.742 182.281 250.117 182.125 250.555 182.125H262.695C263.133 182.125 263.508 182.273 263.82 182.57C264.117 182.883 264.266 183.258 264.266 183.695C264.266 184.133 264.109 184.508 263.797 184.82C263.5 185.117 263.133 185.266 262.695 185.266H258.219V192.812H262.695C263.133 192.812 263.508 192.961 263.82 193.258C264.117 193.57 264.266 193.945 264.266 194.383C264.266 194.82 264.109 195.195 263.797 195.508C263.5 195.805 263.133 195.953 262.695 195.953H250.555C250.117 195.953 249.75 195.797 249.453 195.484C249.141 195.188 248.984 194.82 248.984 194.383Z" fill="url(#paint1_linear_6506_743)"/>
<defs>
<linearGradient id="paint0_linear_6506_743" x1="256" y1="31" x2="256" y2="481" gradientUnits="userSpaceOnUse">
<stop stop-color="#05C3FF"/>
<stop offset="1" stop-color="#760AFF"/>
</linearGradient>
<linearGradient id="paint1_linear_6506_743" x1="256" y1="31" x2="256" y2="199" gradientUnits="userSpaceOnUse">
<stop stop-color="#05C3FF"/>
<stop offset="1" stop-color="#9122FF"/>
</linearGradient>
</defs>
</svg>
